<mxfile host="app.diagrams.net" modified="2020-09-11T08:56:46.818Z" agent="5.0 (Windows NT 10.0; Win64; x64) AppleWebKit/537.36 (KHTML, like Gecko) Chrome/85.0.4183.83 Safari/537.36" etag="8evvIyC9ROnbx7Ckxhn7" version="13.6.9" type="github">
  <diagram name="Page-1" id="5f0bae14-7c28-e335-631c-24af17079c00">
    <mxGraphModel dx="1673" dy="934" grid="1" gridSize="10" guides="1" tooltips="1" connect="1" arrows="1" fold="1" page="1" pageScale="1" pageWidth="3000" pageHeight="2000" background="#ffffff" math="0" shadow="0">
      <root>
        <mxCell id="0" />
        <mxCell id="1" parent="0" />
        <mxCell id="sZEwybRP1zb9QiWafdFN-1" value="&lt;b style=&quot;font-size: 17px&quot;&gt;Proprietary and Existing Asset Management Systems&lt;/b&gt;" style="rounded=0;whiteSpace=wrap;html=1;fillColor=none;strokeColor=#EA6B66;dashed=1;strokeWidth=4;align=left;verticalAlign=top;fontSize=17;" vertex="1" parent="1">
          <mxGeometry x="1387" y="200" width="1393" height="540" as="geometry" />
        </mxCell>
        <mxCell id="GOLraGF-CfSpLIagJdrl-114" value="AWS Cloud" style="points=[[0,0],[0.25,0],[0.5,0],[0.75,0],[1,0],[1,0.25],[1,0.5],[1,0.75],[1,1],[0.75,1],[0.5,1],[0.25,1],[0,1],[0,0.75],[0,0.5],[0,0.25]];outlineConnect=0;gradientColor=none;html=1;whiteSpace=wrap;fontSize=12;fontStyle=0;shape=mxgraph.aws4.group;grIcon=mxgraph.aws4.group_aws_cloud_alt;strokeColor=#232F3E;fillColor=none;verticalAlign=top;align=left;spacingLeft=30;fontColor=#232F3E;dashed=0;shadow=0;sketch=1;" parent="1" vertex="1">
          <mxGeometry x="450" y="1650" width="130" height="130" as="geometry" />
        </mxCell>
        <mxCell id="GOLraGF-CfSpLIagJdrl-1" value="Proprietary Content Management and Content DRM tracking systems" style="rounded=0;whiteSpace=wrap;html=1;fontStyle=1;shadow=0;gradientColor=#D4E1F5;align=left;verticalAlign=top;" parent="1" vertex="1">
          <mxGeometry x="1625" y="390" width="550" height="190" as="geometry" />
        </mxCell>
        <mxCell id="GOLraGF-CfSpLIagJdrl-5" value="AWS Zone A" style="rounded=1;whiteSpace=wrap;html=1;shadow=0;sketch=1;gradientColor=none;align=left;verticalAlign=top;" parent="1" vertex="1">
          <mxGeometry x="1645" y="420" width="120" height="130" as="geometry" />
        </mxCell>
        <mxCell id="GOLraGF-CfSpLIagJdrl-7" value="AWS Future Zone" style="rounded=1;whiteSpace=wrap;html=1;shadow=0;sketch=1;gradientColor=none;align=left;verticalAlign=top;" parent="1" vertex="1">
          <mxGeometry x="2025" y="420" width="120" height="130" as="geometry" />
        </mxCell>
        <mxCell id="GOLraGF-CfSpLIagJdrl-11" value="Secure Petabyte scale storage. Protect at all cost, i.e. heads will roll if this is compromised in any way!" style="text;html=1;strokeColor=none;fillColor=none;align=center;verticalAlign=middle;whiteSpace=wrap;rounded=0;shadow=0;sketch=1;" parent="1" vertex="1">
          <mxGeometry x="2385" y="640" width="240" height="80" as="geometry" />
        </mxCell>
        <mxCell id="GOLraGF-CfSpLIagJdrl-12" value="" style="endArrow=classic;html=1;entryX=1;entryY=0.5;entryDx=0;entryDy=0;entryPerimeter=0;exitX=0;exitY=0.5;exitDx=0;exitDy=0;strokeColor=#6c8ebf;fillColor=#dae8fc;" parent="1" source="GOLraGF-CfSpLIagJdrl-11" edge="1">
          <mxGeometry width="50" height="50" relative="1" as="geometry">
            <mxPoint x="1965" y="670" as="sourcePoint" />
            <mxPoint x="1875" y="680" as="targetPoint" />
          </mxGeometry>
        </mxCell>
        <mxCell id="GOLraGF-CfSpLIagJdrl-15" value="" style="endArrow=classic;startArrow=classic;html=1;entryX=0.4;entryY=1.013;entryDx=0;entryDy=0;entryPerimeter=0;exitX=0.5;exitY=0;exitDx=0;exitDy=0;exitPerimeter=0;" parent="1" target="GOLraGF-CfSpLIagJdrl-1" edge="1">
          <mxGeometry width="50" height="50" relative="1" as="geometry">
            <mxPoint x="1845" y="640" as="sourcePoint" />
            <mxPoint x="1815" y="520" as="targetPoint" />
          </mxGeometry>
        </mxCell>
        <mxCell id="GOLraGF-CfSpLIagJdrl-16" value="App1" style="ellipse;whiteSpace=wrap;html=1;aspect=fixed;shadow=0;sketch=1;gradientColor=none;align=left;strokeColor=#99FF99;" parent="1" vertex="1">
          <mxGeometry x="1655" y="450" width="40" height="40" as="geometry" />
        </mxCell>
        <mxCell id="GOLraGF-CfSpLIagJdrl-18" value="App1" style="ellipse;whiteSpace=wrap;html=1;aspect=fixed;shadow=0;sketch=1;gradientColor=none;align=left;strokeColor=#66FF66;" parent="1" vertex="1">
          <mxGeometry x="2035" y="450" width="40" height="40" as="geometry" />
        </mxCell>
        <mxCell id="GOLraGF-CfSpLIagJdrl-19" value="App 2" style="ellipse;whiteSpace=wrap;html=1;aspect=fixed;shadow=0;sketch=1;gradientColor=none;align=left;strokeColor=#6666FF;" parent="1" vertex="1">
          <mxGeometry x="1695" y="500" width="40" height="40" as="geometry" />
        </mxCell>
        <mxCell id="GOLraGF-CfSpLIagJdrl-21" value="App 2" style="ellipse;whiteSpace=wrap;html=1;aspect=fixed;shadow=0;sketch=1;gradientColor=none;align=left;strokeColor=#6666FF;" parent="1" vertex="1">
          <mxGeometry x="2085" y="490" width="40" height="40" as="geometry" />
        </mxCell>
        <mxCell id="GOLraGF-CfSpLIagJdrl-23" value="&lt;ul&gt;&lt;li style=&quot;text-align: left&quot;&gt;Each Application is clustered within a zone and replicated across zones for maximum scalability and resilience&lt;/li&gt;&lt;li style=&quot;text-align: left&quot;&gt;All VPC have end points (VPC-EP) to enable secure cross-zone and cross-VPC communications&lt;/li&gt;&lt;li style=&quot;text-align: left&quot;&gt;S3 access is limited via VPC-EP configurations&lt;/li&gt;&lt;/ul&gt;" style="text;html=1;strokeColor=none;fillColor=none;align=center;verticalAlign=middle;whiteSpace=wrap;rounded=0;shadow=0;sketch=1;" parent="1" vertex="1">
          <mxGeometry x="2385" y="415" width="360" height="140" as="geometry" />
        </mxCell>
        <mxCell id="GOLraGF-CfSpLIagJdrl-24" value="" style="endArrow=classic;html=1;entryX=1;entryY=0.5;entryDx=0;entryDy=0;fillColor=#dae8fc;strokeColor=#6c8ebf;" parent="1" source="GOLraGF-CfSpLIagJdrl-23" target="GOLraGF-CfSpLIagJdrl-1" edge="1">
          <mxGeometry width="50" height="50" relative="1" as="geometry">
            <mxPoint x="1965" y="640" as="sourcePoint" />
            <mxPoint x="2015" y="590" as="targetPoint" />
          </mxGeometry>
        </mxCell>
        <mxCell id="GOLraGF-CfSpLIagJdrl-26" value="VPC-EP" style="rounded=0;whiteSpace=wrap;html=1;shadow=0;sketch=1;strokeColor=#33001A;gradientColor=none;align=left;" parent="1" vertex="1">
          <mxGeometry x="1745" y="470" width="40" height="30" as="geometry" />
        </mxCell>
        <mxCell id="GOLraGF-CfSpLIagJdrl-27" value="" style="group" parent="1" vertex="1" connectable="0">
          <mxGeometry x="1835" y="420" width="120" height="130" as="geometry" />
        </mxCell>
        <mxCell id="GOLraGF-CfSpLIagJdrl-6" value="AWS Zone B" style="rounded=1;whiteSpace=wrap;html=1;shadow=0;sketch=1;gradientColor=none;align=left;verticalAlign=top;" parent="GOLraGF-CfSpLIagJdrl-27" vertex="1">
          <mxGeometry width="120" height="130" as="geometry" />
        </mxCell>
        <mxCell id="GOLraGF-CfSpLIagJdrl-17" value="App1" style="ellipse;whiteSpace=wrap;html=1;aspect=fixed;shadow=0;sketch=1;gradientColor=none;align=left;strokeColor=#66FF66;" parent="GOLraGF-CfSpLIagJdrl-27" vertex="1">
          <mxGeometry x="10" y="35" width="40" height="40" as="geometry" />
        </mxCell>
        <mxCell id="GOLraGF-CfSpLIagJdrl-20" value="App 2" style="ellipse;whiteSpace=wrap;html=1;aspect=fixed;shadow=0;sketch=1;gradientColor=none;align=left;strokeColor=#6666FF;" parent="GOLraGF-CfSpLIagJdrl-27" vertex="1">
          <mxGeometry x="60" y="85" width="40" height="40" as="geometry" />
        </mxCell>
        <mxCell id="GOLraGF-CfSpLIagJdrl-28" value="VPC-EP" style="rounded=0;whiteSpace=wrap;html=1;shadow=0;sketch=1;strokeColor=#33001A;gradientColor=none;align=left;" parent="1" vertex="1">
          <mxGeometry x="1935" y="460" width="40" height="30" as="geometry" />
        </mxCell>
        <mxCell id="GOLraGF-CfSpLIagJdrl-29" value="VPC-EP" style="rounded=0;whiteSpace=wrap;html=1;shadow=0;sketch=1;strokeColor=#33001A;gradientColor=none;align=left;" parent="1" vertex="1">
          <mxGeometry x="2005" y="500" width="40" height="30" as="geometry" />
        </mxCell>
        <mxCell id="GOLraGF-CfSpLIagJdrl-47" value="" style="edgeStyle=orthogonalEdgeStyle;rounded=0;orthogonalLoop=1;jettySize=auto;html=1;exitX=-0.051;exitY=0.577;exitDx=0;exitDy=0;entryX=0.5;entryY=0;entryDx=0;entryDy=0;exitPerimeter=0;" parent="1" source="GOLraGF-CfSpLIagJdrl-112" edge="1">
          <mxGeometry x="-0.1538" y="25" relative="1" as="geometry">
            <mxPoint x="1400" y="1355" as="sourcePoint" />
            <mxPoint x="935" y="1415" as="targetPoint" />
            <mxPoint as="offset" />
          </mxGeometry>
        </mxCell>
        <mxCell id="GOLraGF-CfSpLIagJdrl-54" style="edgeStyle=orthogonalEdgeStyle;rounded=0;orthogonalLoop=1;jettySize=auto;html=1;exitX=0.5;exitY=1;exitDx=0;exitDy=0;strokeColor=#000000;" parent="1" target="GOLraGF-CfSpLIagJdrl-108" edge="1">
          <mxGeometry relative="1" as="geometry">
            <mxPoint x="1445" y="1400" as="sourcePoint" />
            <mxPoint x="1450" y="1435" as="targetPoint" />
          </mxGeometry>
        </mxCell>
        <mxCell id="GOLraGF-CfSpLIagJdrl-50" value="" style="endArrow=classic;html=1;exitX=0.5;exitY=0;exitDx=0;exitDy=0;" parent="1" source="GOLraGF-CfSpLIagJdrl-114" target="GOLraGF-CfSpLIagJdrl-110" edge="1">
          <mxGeometry width="50" height="50" relative="1" as="geometry">
            <mxPoint x="533.75" y="1652" as="sourcePoint" />
            <mxPoint x="897.5" y="1495" as="targetPoint" />
          </mxGeometry>
        </mxCell>
        <mxCell id="GOLraGF-CfSpLIagJdrl-51" value="" style="endArrow=classic;html=1;strokeColor=#000000;exitX=0.5;exitY=0;exitDx=0;exitDy=0;" parent="1" source="GOLraGF-CfSpLIagJdrl-115" target="GOLraGF-CfSpLIagJdrl-110" edge="1">
          <mxGeometry width="50" height="50" relative="1" as="geometry">
            <mxPoint x="742" y="1636" as="sourcePoint" />
            <mxPoint x="935" y="1495" as="targetPoint" />
          </mxGeometry>
        </mxCell>
        <mxCell id="GOLraGF-CfSpLIagJdrl-52" value="" style="endArrow=classic;html=1;strokeColor=#000000;exitX=0.5;exitY=0;exitDx=0;exitDy=0;" parent="1" source="GOLraGF-CfSpLIagJdrl-117" target="GOLraGF-CfSpLIagJdrl-110" edge="1">
          <mxGeometry width="50" height="50" relative="1" as="geometry">
            <mxPoint x="1002" y="1636" as="sourcePoint" />
            <mxPoint x="972.5" y="1495" as="targetPoint" />
          </mxGeometry>
        </mxCell>
        <mxCell id="GOLraGF-CfSpLIagJdrl-58" value="" style="endArrow=classic;html=1;strokeColor=#000000;" parent="1" source="GOLraGF-CfSpLIagJdrl-108" target="GOLraGF-CfSpLIagJdrl-102" edge="1">
          <mxGeometry width="50" height="50" relative="1" as="geometry">
            <mxPoint x="1390" y="1475" as="sourcePoint" />
            <mxPoint x="1260" y="1535" as="targetPoint" />
          </mxGeometry>
        </mxCell>
        <mxCell id="GOLraGF-CfSpLIagJdrl-60" value="" style="endArrow=classic;html=1;strokeColor=#000000;" parent="1" source="GOLraGF-CfSpLIagJdrl-102" target="GOLraGF-CfSpLIagJdrl-110" edge="1">
          <mxGeometry width="50" height="50" relative="1" as="geometry">
            <mxPoint x="1200" y="1535" as="sourcePoint" />
            <mxPoint x="1010" y="1455" as="targetPoint" />
          </mxGeometry>
        </mxCell>
        <mxCell id="GOLraGF-CfSpLIagJdrl-67" value="Process Asset" style="endArrow=classic;html=1;strokeColor=#000000;entryX=0.1;entryY=0.649;entryDx=0;entryDy=0;entryPerimeter=0;" parent="1" source="GOLraGF-CfSpLIagJdrl-110" target="GOLraGF-CfSpLIagJdrl-62" edge="1">
          <mxGeometry width="50" height="50" relative="1" as="geometry">
            <mxPoint x="860" y="1455" as="sourcePoint" />
            <mxPoint x="700" y="1200" as="targetPoint" />
            <Array as="points">
              <mxPoint x="540" y="1455" />
              <mxPoint x="540" y="1220" />
              <mxPoint x="540" y="1070" />
            </Array>
          </mxGeometry>
        </mxCell>
        <mxCell id="GOLraGF-CfSpLIagJdrl-69" value="Proprietary Tagging Software (3rd Party)" style="shape=hexagon;perimeter=hexagonPerimeter2;whiteSpace=wrap;html=1;fixedSize=1;shadow=0;sketch=1;strokeColor=#33001A;gradientColor=none;align=left;fillColor=#E6E6E6;" parent="1" vertex="1">
          <mxGeometry x="170" y="860" width="120" height="80" as="geometry" />
        </mxCell>
        <mxCell id="GOLraGF-CfSpLIagJdrl-70" value="" style="endArrow=classic;html=1;strokeColor=#000000;entryX=0.516;entryY=0.015;entryDx=0;entryDy=0;entryPerimeter=0;" parent="1" source="GOLraGF-CfSpLIagJdrl-100" target="GOLraGF-CfSpLIagJdrl-64" edge="1">
          <mxGeometry width="50" height="50" relative="1" as="geometry">
            <mxPoint x="290" y="810" as="sourcePoint" />
            <mxPoint x="400" y="780" as="targetPoint" />
            <Array as="points">
              <mxPoint x="828" y="767" />
            </Array>
          </mxGeometry>
        </mxCell>
        <mxCell id="GOLraGF-CfSpLIagJdrl-71" value="" style="endArrow=classic;html=1;strokeColor=#000000;exitX=1;exitY=0.5;exitDx=0;exitDy=0;" parent="1" source="GOLraGF-CfSpLIagJdrl-69" edge="1">
          <mxGeometry width="50" height="50" relative="1" as="geometry">
            <mxPoint x="410" y="920" as="sourcePoint" />
            <mxPoint x="800" y="1031" as="targetPoint" />
            <Array as="points">
              <mxPoint x="800" y="900" />
            </Array>
          </mxGeometry>
        </mxCell>
        <mxCell id="GOLraGF-CfSpLIagJdrl-72" value="Image fingerprinting services" style="shape=hexagon;perimeter=hexagonPerimeter2;whiteSpace=wrap;html=1;fixedSize=1;shadow=0;sketch=1;strokeColor=#33001A;gradientColor=none;align=left;fillColor=#E6E6E6;" parent="1" vertex="1">
          <mxGeometry x="280" y="930" width="120" height="80" as="geometry" />
        </mxCell>
        <mxCell id="GOLraGF-CfSpLIagJdrl-73" value="" style="endArrow=classic;html=1;strokeColor=#000000;exitX=1;exitY=0.5;exitDx=0;exitDy=0;entryX=0.424;entryY=-0.01;entryDx=0;entryDy=0;entryPerimeter=0;" parent="1" source="GOLraGF-CfSpLIagJdrl-72" target="GOLraGF-CfSpLIagJdrl-63" edge="1">
          <mxGeometry width="50" height="50" relative="1" as="geometry">
            <mxPoint x="470" y="990" as="sourcePoint" />
            <mxPoint x="520" y="940" as="targetPoint" />
            <Array as="points">
              <mxPoint x="730" y="970" />
            </Array>
          </mxGeometry>
        </mxCell>
        <mxCell id="GOLraGF-CfSpLIagJdrl-78" value="" style="endArrow=classic;html=1;strokeColor=#000000;" parent="1" target="GOLraGF-CfSpLIagJdrl-75" edge="1">
          <mxGeometry width="50" height="50" relative="1" as="geometry">
            <mxPoint x="870" y="1062" as="sourcePoint" />
            <mxPoint x="970" y="1030" as="targetPoint" />
            <Array as="points">
              <mxPoint x="900" y="1062" />
              <mxPoint x="900" y="932" />
            </Array>
          </mxGeometry>
        </mxCell>
        <mxCell id="GOLraGF-CfSpLIagJdrl-79" value="[ELB]" style="shape=process;whiteSpace=wrap;html=1;backgroundOutline=1;shadow=0;sketch=1;strokeColor=#33001A;gradientColor=none;align=left;fillColor=#D4E1F5;" parent="1" vertex="1">
          <mxGeometry x="1675" y="580" width="130" height="20" as="geometry" />
        </mxCell>
        <mxCell id="GOLraGF-CfSpLIagJdrl-80" value="Store in &lt;br&gt;Application" style="endArrow=classic;html=1;strokeColor=#000000;entryX=0.5;entryY=1;entryDx=0;entryDy=0;" parent="1" source="GOLraGF-CfSpLIagJdrl-76" target="GOLraGF-CfSpLIagJdrl-79" edge="1">
          <mxGeometry width="50" height="50" relative="1" as="geometry">
            <mxPoint x="1210" y="950" as="sourcePoint" />
            <mxPoint x="1260" y="900" as="targetPoint" />
            <Array as="points">
              <mxPoint x="1740" y="930" />
            </Array>
          </mxGeometry>
        </mxCell>
        <mxCell id="GOLraGF-CfSpLIagJdrl-83" value="" style="endArrow=classic;html=1;strokeColor=#000000;" parent="1" source="GOLraGF-CfSpLIagJdrl-111" edge="1">
          <mxGeometry width="50" height="50" relative="1" as="geometry">
            <mxPoint x="997" y="1150" as="sourcePoint" />
            <mxPoint x="997" y="960" as="targetPoint" />
          </mxGeometry>
        </mxCell>
        <mxCell id="GOLraGF-CfSpLIagJdrl-87" style="edgeStyle=orthogonalEdgeStyle;rounded=0;orthogonalLoop=1;jettySize=auto;html=1;exitX=0.5;exitY=0;exitDx=0;exitDy=0;exitPerimeter=0;strokeColor=#000000;" parent="1" source="GOLraGF-CfSpLIagJdrl-84" edge="1">
          <mxGeometry relative="1" as="geometry">
            <mxPoint x="505" y="1780" as="targetPoint" />
          </mxGeometry>
        </mxCell>
        <mxCell id="GOLraGF-CfSpLIagJdrl-84" value="Content &lt;br&gt;Creator" style="shape=umlActor;verticalLabelPosition=bottom;verticalAlign=top;html=1;outlineConnect=0;shadow=0;sketch=1;strokeColor=#33001A;fillColor=#E6E6E6;gradientColor=none;align=left;" parent="1" vertex="1">
          <mxGeometry x="490" y="1840" width="30" height="60" as="geometry" />
        </mxCell>
        <mxCell id="GOLraGF-CfSpLIagJdrl-88" style="edgeStyle=orthogonalEdgeStyle;rounded=0;orthogonalLoop=1;jettySize=auto;html=1;exitX=0.25;exitY=0.1;exitDx=0;exitDy=0;exitPerimeter=0;entryX=0.55;entryY=0.95;entryDx=0;entryDy=0;entryPerimeter=0;strokeColor=#000000;" parent="1" source="GOLraGF-CfSpLIagJdrl-85" edge="1">
          <mxGeometry relative="1" as="geometry">
            <mxPoint x="776.5" y="1772" as="targetPoint" />
          </mxGeometry>
        </mxCell>
        <mxCell id="GOLraGF-CfSpLIagJdrl-85" value="Content &lt;br&gt;Creator" style="shape=umlActor;verticalLabelPosition=bottom;verticalAlign=top;html=1;outlineConnect=0;shadow=0;sketch=1;strokeColor=#33001A;fillColor=#E6E6E6;gradientColor=none;align=left;" parent="1" vertex="1">
          <mxGeometry x="754" y="1840" width="30" height="60" as="geometry" />
        </mxCell>
        <mxCell id="GOLraGF-CfSpLIagJdrl-89" style="edgeStyle=orthogonalEdgeStyle;rounded=0;orthogonalLoop=1;jettySize=auto;html=1;exitX=0.75;exitY=0.1;exitDx=0;exitDy=0;exitPerimeter=0;entryX=0.55;entryY=0.95;entryDx=0;entryDy=0;entryPerimeter=0;strokeColor=#000000;" parent="1" source="GOLraGF-CfSpLIagJdrl-86" edge="1">
          <mxGeometry relative="1" as="geometry">
            <mxPoint x="1036.5" y="1772" as="targetPoint" />
          </mxGeometry>
        </mxCell>
        <mxCell id="GOLraGF-CfSpLIagJdrl-86" value="Content &lt;br&gt;Creator" style="shape=umlActor;verticalLabelPosition=bottom;verticalAlign=top;html=1;outlineConnect=0;shadow=0;sketch=1;strokeColor=#33001A;fillColor=#E6E6E6;gradientColor=none;align=left;" parent="1" vertex="1">
          <mxGeometry x="1020" y="1830" width="30" height="60" as="geometry" />
        </mxCell>
        <mxCell id="GOLraGF-CfSpLIagJdrl-90" value="Corporate Security Gateway (Active Directory, Okta, OneLogin, Ping, etc.)" style="rounded=1;whiteSpace=wrap;html=1;shadow=0;sketch=1;strokeColor=#33001A;fillColor=#E6E6E6;gradientColor=none;align=center;" parent="1" vertex="1">
          <mxGeometry x="1440" y="280" width="920" height="60" as="geometry" />
        </mxCell>
        <mxCell id="GOLraGF-CfSpLIagJdrl-94" style="edgeStyle=orthogonalEdgeStyle;rounded=0;orthogonalLoop=1;jettySize=auto;html=1;strokeColor=#000000;endArrow=block;endFill=1;" parent="1" source="GOLraGF-CfSpLIagJdrl-91" target="GOLraGF-CfSpLIagJdrl-90" edge="1">
          <mxGeometry relative="1" as="geometry" />
        </mxCell>
        <mxCell id="GOLraGF-CfSpLIagJdrl-91" value="End User" style="shape=umlActor;verticalLabelPosition=bottom;verticalAlign=top;html=1;outlineConnect=0;shadow=0;sketch=1;strokeColor=#33001A;fillColor=#E6E6E6;gradientColor=none;align=left;" parent="1" vertex="1">
          <mxGeometry x="1830" y="70" width="30" height="60" as="geometry" />
        </mxCell>
        <mxCell id="GOLraGF-CfSpLIagJdrl-95" value="" style="endArrow=classic;startArrow=classic;html=1;strokeColor=#000000;entryX=0.5;entryY=1;entryDx=0;entryDy=0;exitX=0.5;exitY=0;exitDx=0;exitDy=0;" parent="1" source="GOLraGF-CfSpLIagJdrl-1" target="GOLraGF-CfSpLIagJdrl-90" edge="1">
          <mxGeometry width="50" height="50" relative="1" as="geometry">
            <mxPoint x="1885" y="390" as="sourcePoint" />
            <mxPoint x="1935" y="340" as="targetPoint" />
          </mxGeometry>
        </mxCell>
        <mxCell id="GOLraGF-CfSpLIagJdrl-99" value="" style="endArrow=classic;startArrow=classic;html=1;strokeColor=#000000;" parent="1" source="GOLraGF-CfSpLIagJdrl-111" target="GOLraGF-CfSpLIagJdrl-118" edge="1">
          <mxGeometry width="50" height="50" relative="1" as="geometry">
            <mxPoint x="1119.999999999999" y="1195" as="sourcePoint" />
            <mxPoint x="1222" y="1195.000000000001" as="targetPoint" />
          </mxGeometry>
        </mxCell>
        <mxCell id="GOLraGF-CfSpLIagJdrl-100" value="AWS &lt;br&gt;Rekognition" style="outlineConnect=0;fontColor=#232F3E;gradientColor=none;fillColor=#116D5B;strokeColor=none;dashed=0;verticalLabelPosition=bottom;verticalAlign=top;align=center;html=1;fontSize=12;fontStyle=0;aspect=fixed;pointerEvents=1;shape=mxgraph.aws4.rekognition_image;shadow=0;sketch=1;" parent="1" vertex="1">
          <mxGeometry x="203" y="740" width="49.36" height="50" as="geometry" />
        </mxCell>
        <mxCell id="GOLraGF-CfSpLIagJdrl-102" value="&lt;span style=&quot;color: rgb(0 , 0 , 0) ; text-align: left&quot;&gt;S3 for temp storage&lt;/span&gt;" style="outlineConnect=0;fontColor=#232F3E;gradientColor=#60A337;gradientDirection=north;fillColor=#277116;strokeColor=#ffffff;dashed=0;verticalLabelPosition=bottom;verticalAlign=top;align=center;html=1;fontSize=12;fontStyle=0;aspect=fixed;shape=mxgraph.aws4.resourceIcon;resIcon=mxgraph.aws4.s3;shadow=0;sketch=1;" parent="1" vertex="1">
          <mxGeometry x="1200" y="1495" width="60" height="60" as="geometry" />
        </mxCell>
        <mxCell id="GOLraGF-CfSpLIagJdrl-106" value="S3" style="outlineConnect=0;fontColor=#232F3E;gradientColor=#60A337;gradientDirection=north;fillColor=#277116;strokeColor=#ffffff;dashed=0;verticalLabelPosition=bottom;verticalAlign=top;align=center;html=1;fontSize=12;fontStyle=0;aspect=fixed;shape=mxgraph.aws4.resourceIcon;resIcon=mxgraph.aws4.s3;shadow=0;sketch=1;" parent="1" vertex="1">
          <mxGeometry x="1797" y="640" width="78" height="78" as="geometry" />
        </mxCell>
        <mxCell id="GOLraGF-CfSpLIagJdrl-108" value="&lt;b style=&quot;color: rgb(0 , 0 , 0) ; text-align: left&quot;&gt;[EC2]&lt;/b&gt;&lt;br style=&quot;color: rgb(0 , 0 , 0) ; text-align: left&quot;&gt;&lt;span style=&quot;color: rgb(0 , 0 , 0) ; text-align: left&quot;&gt;Services to monitor non S3 storage sources&lt;/span&gt;" style="outlineConnect=0;fontColor=#232F3E;gradientColor=#F78E04;gradientDirection=north;fillColor=#D05C17;strokeColor=#ffffff;dashed=0;verticalLabelPosition=bottom;verticalAlign=top;align=center;html=1;fontSize=12;fontStyle=0;aspect=fixed;shape=mxgraph.aws4.resourceIcon;resIcon=mxgraph.aws4.ec2;shadow=0;sketch=1;" parent="1" vertex="1">
          <mxGeometry x="1400" y="1440" width="90" height="90" as="geometry" />
        </mxCell>
        <mxCell id="GOLraGF-CfSpLIagJdrl-110" value="&#xa;&#xa;&lt;b style=&quot;color: rgb(0, 0, 0); font-family: helvetica; font-size: 12px; font-style: normal; letter-spacing: normal; text-align: left; text-indent: 0px; text-transform: none; word-spacing: 0px; background-color: rgb(248, 249, 250);&quot;&gt;[Lambda]&lt;/b&gt;&lt;br style=&quot;color: rgb(0, 0, 0); font-family: helvetica; font-size: 12px; font-style: normal; font-weight: 400; letter-spacing: normal; text-align: left; text-indent: 0px; text-transform: none; word-spacing: 0px; background-color: rgb(248, 249, 250);&quot;&gt;&lt;span style=&quot;color: rgb(0, 0, 0); font-family: helvetica; font-size: 12px; font-style: normal; font-weight: 400; letter-spacing: normal; text-align: left; text-indent: 0px; text-transform: none; word-spacing: 0px; background-color: rgb(248, 249, 250); display: inline; float: none;&quot;&gt;S3 Bucket Monitoring&lt;/span&gt;&#xa;&#xa;" style="outlineConnect=0;fontColor=#232F3E;gradientColor=#F78E04;gradientDirection=north;fillColor=#D05C17;strokeColor=#ffffff;dashed=0;verticalLabelPosition=bottom;verticalAlign=top;align=center;html=1;fontSize=12;fontStyle=0;aspect=fixed;shape=mxgraph.aws4.resourceIcon;resIcon=mxgraph.aws4.lambda;shadow=0;sketch=1;" parent="1" vertex="1">
          <mxGeometry x="900" y="1420" width="78" height="78" as="geometry" />
        </mxCell>
        <mxCell id="GOLraGF-CfSpLIagJdrl-111" value="&#xa;&#xa;&lt;b style=&quot;color: rgb(0, 0, 0); font-family: helvetica; font-size: 12px; font-style: normal; letter-spacing: normal; text-align: left; text-indent: 0px; text-transform: none; word-spacing: 0px; background-color: rgb(248, 249, 250);&quot;&gt;[EKS]&lt;/b&gt;&lt;br style=&quot;color: rgb(0, 0, 0); font-family: helvetica; font-size: 12px; font-style: normal; font-weight: 400; letter-spacing: normal; text-align: left; text-indent: 0px; text-transform: none; word-spacing: 0px; background-color: rgb(248, 249, 250);&quot;&gt;&lt;span style=&quot;color: rgb(0, 0, 0); font-family: helvetica; font-size: 12px; font-style: normal; font-weight: 400; letter-spacing: normal; text-align: left; text-indent: 0px; text-transform: none; word-spacing: 0px; background-color: rgb(248, 249, 250); display: inline; float: none;&quot;&gt;AMI Linux clustered app for heavy image processing not supported by Lambda&lt;/span&gt;&#xa;&#xa;" style="outlineConnect=0;fontColor=#232F3E;gradientColor=#F78E04;gradientDirection=north;fillColor=#D05C17;strokeColor=#ffffff;dashed=0;verticalLabelPosition=bottom;verticalAlign=top;align=center;html=1;fontSize=12;fontStyle=0;aspect=fixed;shape=mxgraph.aws4.resourceIcon;resIcon=mxgraph.aws4.eks;shadow=0;sketch=1;" parent="1" vertex="1">
          <mxGeometry x="960" y="1156" width="78" height="78" as="geometry" />
        </mxCell>
        <mxCell id="GOLraGF-CfSpLIagJdrl-112" value="Configuration Service" style="outlineConnect=0;fontColor=#232F3E;gradientColor=none;fillColor=#D05C17;strokeColor=none;dashed=0;verticalLabelPosition=bottom;verticalAlign=top;align=center;html=1;fontSize=12;fontStyle=0;aspect=fixed;pointerEvents=1;shape=mxgraph.aws4.ecs_service;shadow=0;sketch=1;" parent="1" vertex="1">
          <mxGeometry x="1413" y="1310" width="64" height="78" as="geometry" />
        </mxCell>
        <mxCell id="GOLraGF-CfSpLIagJdrl-40" value="Independent clouds across several markets/countries that are locally managed accounts and don&#39;t share data with each other" style="text;html=1;strokeColor=none;fillColor=none;align=center;verticalAlign=middle;whiteSpace=wrap;rounded=0;shadow=0;sketch=1;" parent="1" vertex="1">
          <mxGeometry x="1270" y="1750" width="300" height="70" as="geometry" />
        </mxCell>
        <mxCell id="GOLraGF-CfSpLIagJdrl-103" value="" style="outlineConnect=0;fontColor=#232F3E;gradientColor=#60A337;gradientDirection=north;fillColor=#277116;strokeColor=#ffffff;dashed=0;verticalLabelPosition=bottom;verticalAlign=top;align=center;html=1;fontSize=12;fontStyle=0;aspect=fixed;shape=mxgraph.aws4.resourceIcon;resIcon=mxgraph.aws4.s3;shadow=0;sketch=1;" parent="1" vertex="1">
          <mxGeometry x="991" y="1660" width="78" height="78" as="geometry" />
        </mxCell>
        <mxCell id="GOLraGF-CfSpLIagJdrl-104" value="" style="outlineConnect=0;fontColor=#232F3E;gradientColor=#60A337;gradientDirection=north;fillColor=#277116;strokeColor=#ffffff;dashed=0;verticalLabelPosition=bottom;verticalAlign=top;align=center;html=1;fontSize=12;fontStyle=0;aspect=fixed;shape=mxgraph.aws4.resourceIcon;resIcon=mxgraph.aws4.s3;shadow=0;sketch=1;" parent="1" vertex="1">
          <mxGeometry x="730" y="1666" width="78" height="78" as="geometry" />
        </mxCell>
        <mxCell id="GOLraGF-CfSpLIagJdrl-105" value="" style="outlineConnect=0;fontColor=#232F3E;gradientColor=#60A337;gradientDirection=north;fillColor=#277116;strokeColor=#ffffff;dashed=0;verticalLabelPosition=bottom;verticalAlign=top;align=center;html=1;fontSize=12;fontStyle=0;aspect=fixed;shape=mxgraph.aws4.resourceIcon;resIcon=mxgraph.aws4.s3;shadow=0;sketch=1;" parent="1" vertex="1">
          <mxGeometry x="476" y="1680" width="78" height="78" as="geometry" />
        </mxCell>
        <mxCell id="GOLraGF-CfSpLIagJdrl-115" value="AWS Cloud" style="points=[[0,0],[0.25,0],[0.5,0],[0.75,0],[1,0],[1,0.25],[1,0.5],[1,0.75],[1,1],[0.75,1],[0.5,1],[0.25,1],[0,1],[0,0.75],[0,0.5],[0,0.25]];outlineConnect=0;gradientColor=none;html=1;whiteSpace=wrap;fontSize=12;fontStyle=0;shape=mxgraph.aws4.group;grIcon=mxgraph.aws4.group_aws_cloud_alt;strokeColor=#232F3E;fillColor=none;verticalAlign=top;align=left;spacingLeft=30;fontColor=#232F3E;dashed=0;shadow=0;sketch=1;" parent="1" vertex="1">
          <mxGeometry x="704" y="1640" width="130" height="130" as="geometry" />
        </mxCell>
        <mxCell id="GOLraGF-CfSpLIagJdrl-117" value="AWS Cloud" style="points=[[0,0],[0.25,0],[0.5,0],[0.75,0],[1,0],[1,0.25],[1,0.5],[1,0.75],[1,1],[0.75,1],[0.5,1],[0.25,1],[0,1],[0,0.75],[0,0.5],[0,0.25]];outlineConnect=0;gradientColor=none;html=1;whiteSpace=wrap;fontSize=12;fontStyle=0;shape=mxgraph.aws4.group;grIcon=mxgraph.aws4.group_aws_cloud_alt;strokeColor=#232F3E;fillColor=none;verticalAlign=top;align=left;spacingLeft=30;fontColor=#232F3E;dashed=0;shadow=0;sketch=1;" parent="1" vertex="1">
          <mxGeometry x="979" y="1640" width="130" height="130" as="geometry" />
        </mxCell>
        <mxCell id="GOLraGF-CfSpLIagJdrl-118" value="Shared EFS for temp storage" style="outlineConnect=0;fontColor=#232F3E;gradientColor=#60A337;gradientDirection=north;fillColor=#277116;strokeColor=#ffffff;dashed=0;verticalLabelPosition=bottom;verticalAlign=top;align=center;html=1;fontSize=12;fontStyle=0;aspect=fixed;shape=mxgraph.aws4.resourceIcon;resIcon=mxgraph.aws4.elastic_file_system;shadow=0;sketch=1;" parent="1" vertex="1">
          <mxGeometry x="1322" y="1156" width="78" height="78" as="geometry" />
        </mxCell>
        <mxCell id="GOLraGF-CfSpLIagJdrl-61" value="AWS SWS for Asset Processing" style="swimlane;childLayout=stackLayout;horizontal=1;fillColor=none;horizontalStack=1;resizeParent=1;resizeParentMax=0;resizeLast=0;collapsible=0;strokeColor=none;stackBorder=10;stackSpacing=-12;resizable=1;align=center;points=[];fontColor=#000000;shadow=0;sketch=1;" parent="1" vertex="1">
          <mxGeometry x="590" y="1000" width="296" height="100" as="geometry" />
        </mxCell>
        <mxCell id="GOLraGF-CfSpLIagJdrl-62" value="Validate,&#xa;Anti-Virus" style="shape=step;perimeter=stepPerimeter;fixedSize=1;points=[];" parent="GOLraGF-CfSpLIagJdrl-61" vertex="1">
          <mxGeometry x="10" y="33" width="100" height="57" as="geometry" />
        </mxCell>
        <mxCell id="GOLraGF-CfSpLIagJdrl-63" value="De-duplicate" style="shape=step;perimeter=stepPerimeter;fixedSize=1;points=[];" parent="GOLraGF-CfSpLIagJdrl-61" vertex="1">
          <mxGeometry x="98" y="33" width="100" height="57" as="geometry" />
        </mxCell>
        <mxCell id="GOLraGF-CfSpLIagJdrl-64" value="Tag" style="shape=step;perimeter=stepPerimeter;fixedSize=1;points=[];" parent="GOLraGF-CfSpLIagJdrl-61" vertex="1">
          <mxGeometry x="186" y="33" width="100" height="57" as="geometry" />
        </mxCell>
        <mxCell id="GOLraGF-CfSpLIagJdrl-74" value="AWS SWS for Thumbnail Processing" style="swimlane;childLayout=stackLayout;horizontal=1;fillColor=none;horizontalStack=1;resizeParent=1;resizeParentMax=0;resizeLast=0;collapsible=0;strokeColor=none;stackBorder=10;stackSpacing=-12;resizable=1;align=center;points=[];fontColor=#000000;shadow=0;sketch=1;" parent="1" vertex="1">
          <mxGeometry x="940" y="870" width="208" height="100" as="geometry" />
        </mxCell>
        <mxCell id="GOLraGF-CfSpLIagJdrl-75" value="Generate &#xa;Thumbnails" style="shape=step;perimeter=stepPerimeter;fixedSize=1;points=[];" parent="GOLraGF-CfSpLIagJdrl-74" vertex="1">
          <mxGeometry x="10" y="33" width="100" height="57" as="geometry" />
        </mxCell>
        <mxCell id="GOLraGF-CfSpLIagJdrl-76" value="Optimise &#xa;Images" style="shape=step;perimeter=stepPerimeter;fixedSize=1;points=[];" parent="GOLraGF-CfSpLIagJdrl-74" vertex="1">
          <mxGeometry x="98" y="33" width="100" height="57" as="geometry" />
        </mxCell>
        <mxCell id="sZEwybRP1zb9QiWafdFN-5" value="SFTP&lt;br&gt;Hosts" style="shape=card;whiteSpace=wrap;html=1;strokeColor=#d6b656;strokeWidth=1;fillColor=#fff2cc;" vertex="1" parent="1">
          <mxGeometry x="1835" y="1240" width="80" height="100" as="geometry" />
        </mxCell>
        <mxCell id="sZEwybRP1zb9QiWafdFN-6" value="Distribution Web Services" style="shape=card;whiteSpace=wrap;html=1;strokeColor=#d6b656;strokeWidth=1;fillColor=#fff2cc;" vertex="1" parent="1">
          <mxGeometry x="1835" y="1360" width="80" height="100" as="geometry" />
        </mxCell>
        <mxCell id="sZEwybRP1zb9QiWafdFN-7" value="3rd Party SaaS (Creative Cloud)" style="shape=card;whiteSpace=wrap;html=1;strokeColor=#d6b656;strokeWidth=1;fillColor=#fff2cc;" vertex="1" parent="1">
          <mxGeometry x="1835" y="1480" width="80" height="100" as="geometry" />
        </mxCell>
        <mxCell id="sZEwybRP1zb9QiWafdFN-8" value="Storage Clouds (One Drive, Google Drive, etc.)" style="shape=card;whiteSpace=wrap;html=1;strokeColor=#d6b656;strokeWidth=1;fillColor=#fff2cc;" vertex="1" parent="1">
          <mxGeometry x="1835" y="1600" width="80" height="100" as="geometry" />
        </mxCell>
        <mxCell id="sZEwybRP1zb9QiWafdFN-9" value="" style="endArrow=classic;startArrow=classic;html=1;" edge="1" parent="1" source="GOLraGF-CfSpLIagJdrl-108" target="sZEwybRP1zb9QiWafdFN-5">
          <mxGeometry width="50" height="50" relative="1" as="geometry">
            <mxPoint x="1730" y="1570" as="sourcePoint" />
            <mxPoint x="1780" y="1520" as="targetPoint" />
          </mxGeometry>
        </mxCell>
        <mxCell id="sZEwybRP1zb9QiWafdFN-10" value="" style="endArrow=classic;startArrow=classic;html=1;entryX=0;entryY=0;entryDx=0;entryDy=65;entryPerimeter=0;" edge="1" parent="1" source="GOLraGF-CfSpLIagJdrl-108" target="sZEwybRP1zb9QiWafdFN-6">
          <mxGeometry width="50" height="50" relative="1" as="geometry">
            <mxPoint x="1730" y="1570" as="sourcePoint" />
            <mxPoint x="1780" y="1520" as="targetPoint" />
          </mxGeometry>
        </mxCell>
        <mxCell id="sZEwybRP1zb9QiWafdFN-11" value="" style="endArrow=classic;startArrow=classic;html=1;" edge="1" parent="1" source="GOLraGF-CfSpLIagJdrl-108" target="sZEwybRP1zb9QiWafdFN-7">
          <mxGeometry width="50" height="50" relative="1" as="geometry">
            <mxPoint x="1730" y="1570" as="sourcePoint" />
            <mxPoint x="1780" y="1520" as="targetPoint" />
          </mxGeometry>
        </mxCell>
        <mxCell id="sZEwybRP1zb9QiWafdFN-12" value="" style="endArrow=classic;startArrow=classic;html=1;" edge="1" parent="1" source="GOLraGF-CfSpLIagJdrl-108" target="sZEwybRP1zb9QiWafdFN-8">
          <mxGeometry width="50" height="50" relative="1" as="geometry">
            <mxPoint x="1730" y="1570" as="sourcePoint" />
            <mxPoint x="1780" y="1520" as="targetPoint" />
          </mxGeometry>
        </mxCell>
        <mxCell id="sZEwybRP1zb9QiWafdFN-13" value="3rd Party Systems" style="rounded=0;whiteSpace=wrap;html=1;strokeColor=#000000;strokeWidth=4;fillColor=none;fontSize=17;align=left;dashed=1;verticalAlign=top;fontStyle=1" vertex="1" parent="1">
          <mxGeometry x="130" y="680" width="310" height="410" as="geometry" />
        </mxCell>
        <mxCell id="sZEwybRP1zb9QiWafdFN-14" value="Content &lt;br&gt;Creator" style="shape=umlActor;verticalLabelPosition=bottom;verticalAlign=top;html=1;outlineConnect=0;shadow=0;sketch=1;strokeColor=#33001A;fillColor=#E6E6E6;gradientColor=none;align=left;" vertex="1" parent="1">
          <mxGeometry x="2040" y="1250" width="30" height="60" as="geometry" />
        </mxCell>
        <mxCell id="sZEwybRP1zb9QiWafdFN-15" value="Content &lt;br&gt;Creator" style="shape=umlActor;verticalLabelPosition=bottom;verticalAlign=top;html=1;outlineConnect=0;shadow=0;sketch=1;strokeColor=#33001A;fillColor=#E6E6E6;gradientColor=none;align=left;" vertex="1" parent="1">
          <mxGeometry x="2040" y="1388" width="30" height="60" as="geometry" />
        </mxCell>
        <mxCell id="sZEwybRP1zb9QiWafdFN-16" value="Content &lt;br&gt;Creator" style="shape=umlActor;verticalLabelPosition=bottom;verticalAlign=top;html=1;outlineConnect=0;shadow=0;sketch=1;strokeColor=#33001A;fillColor=#E6E6E6;gradientColor=none;align=left;" vertex="1" parent="1">
          <mxGeometry x="2040" y="1510" width="30" height="60" as="geometry" />
        </mxCell>
        <mxCell id="sZEwybRP1zb9QiWafdFN-17" value="Content &lt;br&gt;Creator" style="shape=umlActor;verticalLabelPosition=bottom;verticalAlign=top;html=1;outlineConnect=0;shadow=0;sketch=1;strokeColor=#33001A;fillColor=#E6E6E6;gradientColor=none;align=left;" vertex="1" parent="1">
          <mxGeometry x="2040" y="1620" width="30" height="60" as="geometry" />
        </mxCell>
        <mxCell id="sZEwybRP1zb9QiWafdFN-18" value="" style="endArrow=classic;html=1;fontSize=17;exitX=0.5;exitY=0.5;exitDx=0;exitDy=0;exitPerimeter=0;" edge="1" parent="1" source="sZEwybRP1zb9QiWafdFN-17" target="sZEwybRP1zb9QiWafdFN-8">
          <mxGeometry width="50" height="50" relative="1" as="geometry">
            <mxPoint x="1620" y="1580" as="sourcePoint" />
            <mxPoint x="1670" y="1530" as="targetPoint" />
          </mxGeometry>
        </mxCell>
        <mxCell id="sZEwybRP1zb9QiWafdFN-19" value="" style="endArrow=classic;html=1;fontSize=17;exitX=0.5;exitY=0.5;exitDx=0;exitDy=0;exitPerimeter=0;entryX=1.025;entryY=0.601;entryDx=0;entryDy=0;entryPerimeter=0;" edge="1" parent="1" source="sZEwybRP1zb9QiWafdFN-16" target="sZEwybRP1zb9QiWafdFN-7">
          <mxGeometry width="50" height="50" relative="1" as="geometry">
            <mxPoint x="1620" y="1580" as="sourcePoint" />
            <mxPoint x="1670" y="1530" as="targetPoint" />
          </mxGeometry>
        </mxCell>
        <mxCell id="sZEwybRP1zb9QiWafdFN-20" value="" style="endArrow=classic;html=1;fontSize=17;exitX=0.5;exitY=0.5;exitDx=0;exitDy=0;exitPerimeter=0;" edge="1" parent="1" source="sZEwybRP1zb9QiWafdFN-15" target="sZEwybRP1zb9QiWafdFN-6">
          <mxGeometry width="50" height="50" relative="1" as="geometry">
            <mxPoint x="1620" y="1580" as="sourcePoint" />
            <mxPoint x="1670" y="1530" as="targetPoint" />
          </mxGeometry>
        </mxCell>
        <mxCell id="sZEwybRP1zb9QiWafdFN-21" value="" style="endArrow=classic;html=1;fontSize=17;exitX=0.5;exitY=0.5;exitDx=0;exitDy=0;exitPerimeter=0;" edge="1" parent="1" source="sZEwybRP1zb9QiWafdFN-14" target="sZEwybRP1zb9QiWafdFN-5">
          <mxGeometry width="50" height="50" relative="1" as="geometry">
            <mxPoint x="1620" y="1580" as="sourcePoint" />
            <mxPoint x="1670" y="1530" as="targetPoint" />
          </mxGeometry>
        </mxCell>
        <mxCell id="sZEwybRP1zb9QiWafdFN-22" value="" style="whiteSpace=wrap;html=1;aspect=fixed;dashed=1;strokeColor=#d6b656;strokeWidth=4;fontSize=17;align=left;fillColor=none;" vertex="1" parent="1">
          <mxGeometry x="1760" y="1215" width="520" height="520" as="geometry" />
        </mxCell>
        <mxCell id="sZEwybRP1zb9QiWafdFN-23" value="" style="rounded=0;whiteSpace=wrap;html=1;dashed=1;strokeWidth=4;fontSize=17;align=left;fontColor=#333333;fillColor=none;strokeColor=#97D077;" vertex="1" parent="1">
          <mxGeometry x="390" y="1600" width="760" height="370" as="geometry" />
        </mxCell>
        <mxCell id="sZEwybRP1zb9QiWafdFN-24" value="" style="endArrow=classic;html=1;entryX=1;entryY=0.5;entryDx=0;entryDy=0;exitX=0;exitY=0.5;exitDx=0;exitDy=0;strokeColor=#6c8ebf;fillColor=#dae8fc;" edge="1" parent="1" source="GOLraGF-CfSpLIagJdrl-40" target="sZEwybRP1zb9QiWafdFN-23">
          <mxGeometry width="50" height="50" relative="1" as="geometry">
            <mxPoint x="1735" y="1820" as="sourcePoint" />
            <mxPoint x="1225" y="1820" as="targetPoint" />
          </mxGeometry>
        </mxCell>
        <mxCell id="sZEwybRP1zb9QiWafdFN-25" value="End User" style="shape=umlActor;verticalLabelPosition=bottom;verticalAlign=top;html=1;outlineConnect=0;shadow=0;sketch=1;strokeColor=#33001A;fillColor=#E6E6E6;gradientColor=none;align=left;" vertex="1" parent="1">
          <mxGeometry x="1900" y="70" width="30" height="60" as="geometry" />
        </mxCell>
        <mxCell id="sZEwybRP1zb9QiWafdFN-26" value="End User" style="shape=umlActor;verticalLabelPosition=bottom;verticalAlign=top;html=1;outlineConnect=0;shadow=0;sketch=1;strokeColor=#33001A;fillColor=#E6E6E6;gradientColor=none;align=left;" vertex="1" parent="1">
          <mxGeometry x="1760" y="70" width="30" height="60" as="geometry" />
        </mxCell>
      </root>
    </mxGraphModel>
  </diagram>
</mxfile>
